<?xml version="1.0" standalone="no"?>
<!DOCTYPE svg PUBLIC "-//W3C//DTD SVG 20010904//EN"
 "http://www.w3.org/TR/2001/REC-SVG-20010904/DTD/svg10.dtd">
<svg version="1.0" xmlns="http://www.w3.org/2000/svg"
 width="286.000000pt" height="286.000000pt" viewBox="0 0 286.000000 286.000000"
 preserveAspectRatio="xMidYMid meet">
<metadata>
Created by potrace 1.14, written by Peter Selinger 2001-2017
</metadata>
<g transform="translate(0.000000,286.000000) scale(0.100000,-0.100000)"
fill="#000000" stroke="none">
<path d="M1977 1827 l-77 -202 0 -292 0 -293 182 -2 182 -3 39 -103 40 -102
99 0 c76 0 99 3 95 13 -4 9 -436 1128 -454 1175 -13 33 -34 -4 -106 -191z
m153 -447 c28 -73 49 -134 47 -137 -2 -2 -54 -2 -115 -1 l-110 3 56 147 c37
95 59 143 64 134 4 -8 31 -74 58 -146z"/>
<path d="M330 1428 l0 -598 90 0 90 0 2 286 3 287 158 -238 159 -237 244 366
244 367 -2 180 -3 181 -240 -371 c-132 -204 -242 -371 -245 -371 -3 0 -116
168 -252 373 l-248 372 0 -597z"/>
<path d="M1690 1775 l0 -245 -184 0 -185 0 -3 37 c-3 36 -4 35 -90 -95 l-88
-132 0 -255 0 -255 90 0 90 0 0 245 0 245 185 0 185 0 0 -245 0 -245 90 0 90
0 0 595 0 595 -90 0 -90 0 0 -245z"/>
<path d="M1626 919 c-14 -38 -26 -74 -26 -80 0 -5 14 -9 30 -9 l30 0 0 80 c0
44 -2 80 -4 80 -2 0 -15 -32 -30 -71z"/>
</g>
</svg>
